<svg width="48" height="48" viewBox="0 0 48 48" fill="none" xmlns="http://www.w3.org/2000/svg">
<path d="M42 24.0003C42 24.8465 41.3754 25.5456 40.5688 25.6481L40.3636 25.661H7.63636C6.97309 25.661 6.37745 25.2558 6.12436 24.6336C6.04145 24.4299 6 24.2151 6 24.0003C6 23.6405 6.11515 23.2838 6.33662 22.9916L6.48218 22.8246L19.6822 9.48355C20.3215 8.83698 21.3578 8.83919 21.9949 9.48797C22.5789 10.0847 22.6276 11.0182 22.1375 11.6677L21.9905 11.8373L11.5985 22.3396L40.3636 22.3396C41.2669 22.3396 42 23.0836 42 24.0003ZM21.9908 36.1627C22.6322 36.8092 22.6322 37.861 21.9951 38.512C21.4111 39.1067 20.4916 39.1582 19.8483 38.6646L19.6802 38.5165L12.4017 31.1584C12.0788 30.8329 11.9195 30.4078 11.9195 29.9804C11.9195 29.5575 12.0788 29.1346 12.3973 28.8091C12.9813 28.2123 13.899 28.1607 14.5419 28.656L14.71 28.8046L21.9908 36.1627Z" fill="white"/>
</svg>
